<?xml version="1.0" encoding="UTF-8"?>
<svg version="1.1" xmlns="http://www.w3.org/2000/svg" width="500" height="500">
<path d="M0 0 C7.64825262 7.14819174 14.55579501 14.73907765 21 23 C21.78890625 23.98355469 22.5778125 24.96710938 23.390625 25.98046875 C39.72319082 46.51496126 51.9764258 69.40339686 61 94 C61.24443848 94.65629395 61.48887695 95.31258789 61.74072266 95.98876953 C64.54447327 103.59666588 66.692403 111.32119789 68.625 119.1875 C68.81924561 119.96343506 69.01349121 120.73937012 69.21362305 121.53881836 C69.87597732 124.3492575 70.45077174 127.16506892 71 130 C71.12848328 130.6610675 71.25696655 131.32213501 71.38934326 132.00323486 C73.96296348 145.6938292 74.46826307 159.14547716 74.39111328 173.05419922 C74.3750179 176.49617117 74.39106429 179.93696937 74.41015625 183.37890625 C74.42318893 196.8503546 73.54975736 209.76711293 71 223 C70.80132324 224.05380859 70.60264648 225.10761719 70.39794922 226.19335938 C69.89973541 228.64513141 69.34851697 231.0709841 68.75 233.5 C68.54310547 234.35327881 68.33621094 235.20655762 68.12304688 236.08569336 C65.72430676 245.61159387 62.49256341 254.82648148 59 264 C58.36771484 265.66095703 58.36771484 265.66095703 57.72265625 267.35546875 C46.03812711 296.50777882 28.60068408 322.32028082 7 345 C6.14462646 345.898396 6.14462646 345.898396 5.27197266 346.81494141 C-29.73287257 383.30775153 -77.38059461 406.40885867 -127 415 C-127.92578857 415.18256348 -128.85157715 415.36512695 -129.80541992 415.55322266 C-141.32422968 417.56232778 -152.94994703 417.37214711 -164.60864258 417.37060547 C-168.26627371 417.37494515 -171.92266207 417.41126187 -175.58007812 417.44921875 C-195.74484562 417.54662281 -215.5045299 415.51683088 -234.875 409.6875 C-236.4209082 409.23540161 -236.4209082 409.23540161 -237.99804688 408.77416992 C-274.74776761 397.8295654 -307.42157146 379.92476073 -335.75390625 354.0234375 C-337.52725596 352.42588072 -339.31683982 350.91616508 -341.1875 349.4375 C-344.13354394 346.88426192 -346.57879619 344.1762476 -349.09765625 341.2109375 C-351.09069748 338.89458979 -353.1668239 336.67292248 -355.25 334.4375 C-387.50484131 298.51982078 -405.95393181 251.40237698 -412 204 C-412.103125 203.24017822 -412.20625 202.48035645 -412.3125 201.69750977 C-419.85128925 138.74188849 -399.9046126 75.71142856 -361.625 25.91015625 C-349.8842723 11.29714338 -336.80208779 -2.48496801 -322 -14 C-321.07703125 -14.72832031 -320.1540625 -15.45664062 -319.203125 -16.20703125 C-298.42469145 -32.24011984 -274.84147367 -44.62211002 -250 -53 C-248.77748535 -53.41306396 -248.77748535 -53.41306396 -247.53027344 -53.83447266 C-161.54455915 -82.33033762 -66.54376145 -61.17552523 0 0 Z " fill="#020101" transform="translate(419,74)"/>
<path d="M0 0 C50.49 0 100.98 0 153 0 C155.64 5.28 158.28 10.56 161 16 C170.09319358 27.94329903 182.1844281 35.46836439 197 38 C212.74984089 39.09931775 227.19914503 35.1224038 239.3125 24.75 C247.17013627 17.22029077 250.91849175 10.20377062 255 0 C262.59 0 270.18 0 278 0 C279.2065625 3.7434375 279.2065625 3.7434375 280.4375 7.5625 C284.64903581 19.81942316 290.70173745 32.79910119 302 40 C302.81464722 40.53959351 302.81464722 40.53959351 303.64575195 41.09008789 C311.53991798 45.48602083 320.45770552 44.32703923 329.1875 44.0625 C331.63316926 43.99418252 334.07823886 43.9322913 336.52449036 43.88926697 C338.03744122 43.86225901 339.55022949 43.82091344 341.06230164 43.76271057 C345.83184703 43.6720636 348.99431395 44.39708907 353 47 C355.87744665 49.92039362 356.42177661 52.21100446 356.6875 56.25 C356.75324219 57.14203125 356.81898438 58.0340625 356.88671875 58.953125 C356.92410156 59.62859375 356.96148437 60.3040625 357 61 C356.1435791 61.4532666 355.2871582 61.9065332 354.40478516 62.37353516 C351.17903754 64.08172099 347.95522303 65.79352851 344.73193359 67.50634766 C343.34572662 68.24233842 341.95902096 68.97739081 340.57177734 69.71142578 C333.30111373 73.55936544 326.08081191 77.42618037 319.07763672 81.75 C310.3515625 87 310.3515625 87 307 87 C307 87.66 307 88.32 307 89 C307.67546875 88.97679687 308.3509375 88.95359375 309.046875 88.9296875 C309.93890625 88.91164063 310.8309375 88.89359375 311.75 88.875 C312.63171875 88.85179687 313.5134375 88.82859375 314.421875 88.8046875 C317.1135858 89.00860498 318.69904974 89.63448279 321 91 C321 92.32 321 93.64 321 95 C323.64 95 326.28 95 329 95 C327.89677931 102.76950283 325.88206984 109.52626502 322.75390625 116.70703125 C322.34212631 117.67605881 321.93034637 118.64508636 321.50608826 119.64347839 C320.20208905 122.70444658 318.88239404 125.75835749 317.5625 128.8125 C316.68064397 130.87913229 315.79977593 132.94618646 314.91992188 135.01367188 C312.63926307 140.35414243 310.35866856 145.69342868 308 151 C307.49484863 152.14428467 306.98969727 153.28856934 306.46923828 154.4675293 C304.89218139 157.18584289 303.87124085 158.14241773 301.11328125 159.5625 C299.96520996 160.1644519 299.96520996 160.1644519 298.79394531 160.77856445 C297.97506836 161.18163818 297.15619141 161.58471191 296.3125 162 C295.03971191 162.64618286 295.03971191 162.64618286 293.74121094 163.30541992 C286.63194864 166.84344065 279.40136939 169.80178059 271.88671875 172.35302734 C270.04018717 172.98621946 268.20729199 173.65874292 266.375 174.33203125 C250.12565678 180.1278638 233.10316557 183.09108816 215.8671875 183.23828125 C214.92047684 183.24802979 213.97376617 183.25777832 212.99836731 183.26782227 C174.1198376 183.58633393 174.1198376 183.58633393 157 179 C156.24170898 178.80744629 155.48341797 178.61489258 154.70214844 178.41650391 C149.7315784 177.13808269 144.8581145 175.652649 140 174 C139.35047363 173.78118164 138.70094727 173.56236328 138.03173828 173.33691406 C109.48486769 163.56360035 84.29162256 148.26226283 62.51074219 127.44335938 C61.48747417 126.46573162 60.45930973 125.49320776 59.42675781 124.52539062 C28.1242646 95.10675567 8.82648192 54.75228531 1.25 12.8125 C1.12214111 12.10544922 0.99428223 11.39839844 0.86254883 10.66992188 C0.23504287 7.0064529 0 3.7489049 0 0 Z " fill="#FBFBFB" transform="translate(46,266)"/>
<path d="M0 0 C1.85153687 -0.00287018 1.85153687 -0.00287018 3.74047852 -0.00579834 C6.32861538 -0.00714846 8.91675929 -0.0035349 11.50488281 0.00488281 C15.42789164 0.01559875 19.35044263 0.0049468 23.2734375 -0.0078125 C25.80729266 -0.0064907 28.34114754 -0.00392788 30.875 0 C32.60375366 -0.00607269 32.60375366 -0.00607269 34.36743164 -0.01226807 C45.48970335 0.05062071 56.10496406 1.02190488 66.4375 5.265625 C68.42706785 5.65643297 70.42556977 6.01413372 72.4375 6.265625 C72.4375 6.925625 72.4375 7.585625 72.4375 8.265625 C73.27023437 8.21019531 74.10296875 8.15476562 74.9609375 8.09765625 C79.0278201 8.29414608 82.33040007 9.45838781 86.0625 10.953125 C87.10929932 11.35978394 87.10929932 11.35978394 88.17724609 11.7746582 C90.2692338 12.59246131 92.35424184 13.42586202 94.4375 14.265625 C95.5925 14.7296875 96.7475 15.19375 97.9375 15.671875 C102.8694833 17.69398815 107.72231764 19.77705653 112.4375 22.265625 C112.4375 22.925625 112.4375 23.585625 112.4375 24.265625 C113.7575 24.265625 115.0775 24.265625 116.4375 24.265625 C116.4375 24.925625 116.4375 25.585625 116.4375 26.265625 C117.345 26.554375 118.2525 26.843125 119.1875 27.140625 C121.75952908 28.03094276 124.05096766 28.98056913 126.4375 30.265625 C126.4375 30.925625 126.4375 31.585625 126.4375 32.265625 C127.0975 32.265625 127.7575 32.265625 128.4375 32.265625 C128.4375 32.925625 128.4375 33.585625 128.4375 34.265625 C129.7575 34.265625 131.0775 34.265625 132.4375 34.265625 C132.4375 34.925625 132.4375 35.585625 132.4375 36.265625 C133.0975 36.265625 133.7575 36.265625 134.4375 36.265625 C134.4375 36.925625 134.4375 37.585625 134.4375 38.265625 C135.0975 38.265625 135.7575 38.265625 136.4375 38.265625 C136.4375 39.585625 136.4375 40.905625 136.4375 42.265625 C135.7775 42.265625 135.1175 42.265625 134.4375 42.265625 C134.4375 42.925625 134.4375 43.585625 134.4375 44.265625 C133.7775 44.265625 133.1175 44.265625 132.4375 44.265625 C132.4375 45.585625 132.4375 46.905625 132.4375 48.265625 C131.7775 48.265625 131.1175 48.265625 130.4375 48.265625 C130.4375 49.585625 130.4375 50.905625 130.4375 52.265625 C129.7775 52.265625 129.1175 52.265625 128.4375 52.265625 C128.4375 52.925625 128.4375 53.585625 128.4375 54.265625 C127.7775 54.265625 127.1175 54.265625 126.4375 54.265625 C126.4375 55.585625 126.4375 56.905625 126.4375 58.265625 C125.7775 58.265625 125.1175 58.265625 124.4375 58.265625 C124.4375 59.585625 124.4375 60.905625 124.4375 62.265625 C123.7775 62.265625 123.1175 62.265625 122.4375 62.265625 C122.4375 63.585625 122.4375 64.905625 122.4375 66.265625 C121.7775 66.265625 121.1175 66.265625 120.4375 66.265625 C120.4375 67.585625 120.4375 68.905625 120.4375 70.265625 C119.7775 70.265625 119.1175 70.265625 118.4375 70.265625 C118.4375 71.585625 118.4375 72.905625 118.4375 74.265625 C117.7775 74.265625 117.1175 74.265625 116.4375 74.265625 C116.4375 75.585625 116.4375 76.905625 116.4375 78.265625 C113.1375 78.265625 109.8375 78.265625 106.4375 78.265625 C106.4375 78.925625 106.4375 79.585625 106.4375 80.265625 C87.2975 80.265625 68.1575 80.265625 48.4375 80.265625 C48.4375 80.925625 48.4375 81.585625 48.4375 82.265625 C45.7975 82.265625 43.1575 82.265625 40.4375 82.265625 C40.4375 82.925625 40.4375 83.585625 40.4375 84.265625 C38.4575 84.265625 36.4775 84.265625 34.4375 84.265625 C34.4375 84.925625 34.4375 85.585625 34.4375 86.265625 C33.1175 86.265625 31.7975 86.265625 30.4375 86.265625 C30.4375 88.245625 30.4375 90.225625 30.4375 92.265625 C31.0975 92.265625 31.7575 92.265625 32.4375 92.265625 C32.4375 92.925625 32.4375 93.585625 32.4375 94.265625 C33.0975 94.265625 33.7575 94.265625 34.4375 94.265625 C34.4375 94.925625 34.4375 95.585625 34.4375 96.265625 C35.0975 96.265625 35.7575 96.265625 36.4375 96.265625 C36.4375 96.925625 36.4375 97.585625 36.4375 98.265625 C37.7575 98.265625 39.0775 98.265625 40.4375 98.265625 C40.4375 98.925625 40.4375 99.585625 40.4375 100.265625 C41.7575 100.265625 43.0775 100.265625 44.4375 100.265625 C44.4375 100.925625 44.4375 101.585625 44.4375 102.265625 C45.28054688 102.47058594 46.12359375 102.67554688 46.9921875 102.88671875 C48.08789062 103.15613281 49.18359375 103.42554688 50.3125 103.703125 C51.40304687 103.96996094 52.49359375 104.23679687 53.6171875 104.51171875 C56.4375 105.265625 56.4375 105.265625 58.4375 106.265625 C58.4375 106.925625 58.4375 107.585625 58.4375 108.265625 C59.08976563 108.24242187 59.74203125 108.21921875 60.4140625 108.1953125 C65.52448903 108.08978747 69.64175033 108.24636198 74.4375 110.265625 C74.4375 112.245625 74.4375 114.225625 74.4375 116.265625 C73.7775 116.265625 73.1175 116.265625 72.4375 116.265625 C72.4375 117.585625 72.4375 118.905625 72.4375 120.265625 C71.7775 120.265625 71.1175 120.265625 70.4375 120.265625 C70.4375 120.925625 70.4375 121.585625 70.4375 122.265625 C72.4175 122.265625 74.3975 122.265625 76.4375 122.265625 C76.7675 121.275625 77.0975 120.285625 77.4375 119.265625 C80.9025 118.770625 80.9025 118.770625 84.4375 118.265625 C84.4375 117.605625 84.4375 116.945625 84.4375 116.265625 C85.0975 116.265625 85.7575 116.265625 86.4375 116.265625 C86.4375 117.585625 86.4375 118.905625 86.4375 120.265625 C85.7775 120.265625 85.1175 120.265625 84.4375 120.265625 C84.4375 121.585625 84.4375 122.905625 84.4375 124.265625 C83.7775 124.265625 83.1175 124.265625 82.4375 124.265625 C82.293125 125.214375 82.14875 126.163125 82 127.140625 C81.4375 130.265625 81.4375 130.265625 80.4375 132.265625 C79.7775 132.265625 79.1175 132.265625 78.4375 132.265625 C78.4375 133.585625 78.4375 134.905625 78.4375 136.265625 C77.7775 136.265625 77.1175 136.265625 76.4375 136.265625 C76.4375 137.585625 76.4375 138.905625 76.4375 140.265625 C78.4175 139.605625 80.3975 138.945625 82.4375 138.265625 C82.4375 137.605625 82.4375 136.945625 82.4375 136.265625 C84.4175 136.265625 86.3975 136.265625 88.4375 136.265625 C88.4375 135.605625 88.4375 134.945625 88.4375 134.265625 C94.37665684 131.75852191 100.14027443 129.66500846 106.4375 128.265625 C106.84762658 148.04284019 106.84762658 148.04284019 104.4375 156.265625 C103.7775 156.265625 103.1175 156.265625 102.4375 156.265625 C102.4375 158.245625 102.4375 160.225625 102.4375 162.265625 C101.7775 162.265625 101.1175 162.265625 100.4375 162.265625 C100.4375 162.925625 100.4375 163.585625 100.4375 164.265625 C99.1175 164.265625 97.7975 164.265625 96.4375 164.265625 C96.4375 164.925625 96.4375 165.585625 96.4375 166.265625 C91.09914461 168.19033817 86.08770618 169.66453924 80.4375 170.265625 C80.4375 172.905625 80.4375 175.545625 80.4375 178.265625 C81.0975 178.265625 81.7575 178.265625 82.4375 178.265625 C82.4375 180.575625 82.4375 182.885625 82.4375 185.265625 C76.8275 185.265625 71.2175 185.265625 65.4375 185.265625 C62.4375 178.265625 62.4375 178.265625 62.4375 174.265625 C61.7775 174.265625 61.1175 174.265625 60.4375 174.265625 C60.4375 172.945625 60.4375 171.625625 60.4375 170.265625 C59.7775 170.265625 59.1175 170.265625 58.4375 170.265625 C58.4375 169.605625 58.4375 168.945625 58.4375 168.265625 C57.7775 168.265625 57.1175 168.265625 56.4375 168.265625 C56.4375 166.945625 56.4375 165.625625 56.4375 164.265625 C55.7775 164.265625 55.1175 164.265625 54.4375 164.265625 C54.4375 163.605625 54.4375 162.945625 54.4375 162.265625 C53.7775 162.265625 53.1175 162.265625 52.4375 162.265625 C52.4375 161.605625 52.4375 160.945625 52.4375 160.265625 C51.1175 160.265625 49.7975 160.265625 48.4375 160.265625 C48.4375 159.605625 48.4375 158.945625 48.4375 158.265625 C47.7775 158.265625 47.1175 158.265625 46.4375 158.265625 C46.4375 157.605625 46.4375 156.945625 46.4375 156.265625 C45.7775 156.265625 45.1175 156.265625 44.4375 156.265625 C44.4375 155.605625 44.4375 154.945625 44.4375 154.265625 C43.1175 154.265625 41.7975 154.265625 40.4375 154.265625 C40.4375 153.605625 40.4375 152.945625 40.4375 152.265625 C38.85451974 151.7852932 37.27110022 151.30640888 35.6875 150.828125 C34.80578125 150.56128906 33.9240625 150.29445312 33.015625 150.01953125 C30.83184165 149.38094006 28.64914502 148.79786667 26.4375 148.265625 C26.4375 147.605625 26.4375 146.945625 26.4375 146.265625 C12.15836471 146.42067749 12.15836471 146.42067749 -1.640625 149.6328125 C-4.30765787 150.51098186 -6.78489013 150.48490999 -9.5625 150.265625 C-9.5625 150.925625 -9.5625 151.585625 -9.5625 152.265625 C-10.2225 152.265625 -10.8825 152.265625 -11.5625 152.265625 C-11.5625 152.925625 -11.5625 153.585625 -11.5625 154.265625 C-12.8825 154.265625 -14.2025 154.265625 -15.5625 154.265625 C-15.5625 154.925625 -15.5625 155.585625 -15.5625 156.265625 C-16.2225 156.265625 -16.8825 156.265625 -17.5625 156.265625 C-17.5625 156.925625 -17.5625 157.585625 -17.5625 158.265625 C-18.2225 158.265625 -18.8825 158.265625 -19.5625 158.265625 C-19.5625 158.925625 -19.5625 159.585625 -19.5625 160.265625 C-20.2225 160.265625 -20.8825 160.265625 -21.5625 160.265625 C-21.5625 160.925625 -21.5625 161.585625 -21.5625 162.265625 C-22.2225 162.265625 -22.8825 162.265625 -23.5625 162.265625 C-23.5625 162.925625 -23.5625 163.585625 -23.5625 164.265625 C-24.2225 164.265625 -24.8825 164.265625 -25.5625 164.265625 C-25.5625 164.925625 -25.5625 165.585625 -25.5625 166.265625 C-26.2225 166.265625 -26.8825 166.265625 -27.5625 166.265625 C-27.5625 166.925625 -27.5625 167.585625 -27.5625 168.265625 C-28.2225 168.265625 -28.8825 168.265625 -29.5625 168.265625 C-29.5625 168.925625 -29.5625 169.585625 -29.5625 170.265625 C-30.2225 170.265625 -30.8825 170.265625 -31.5625 170.265625 C-31.5625 171.585625 -31.5625 172.905625 -31.5625 174.265625 C-32.2225 174.265625 -32.8825 174.265625 -33.5625 174.265625 C-33.5625 175.585625 -33.5625 176.905625 -33.5625 178.265625 C-34.2225 178.265625 -34.8825 178.265625 -35.5625 178.265625 C-35.5625 180.245625 -35.5625 182.225625 -35.5625 184.265625 C-85.7225 184.265625 -135.8825 184.265625 -187.5625 184.265625 C-187.5625 164.09895833 -187.5625 164.09895833 -184.5625 154.265625 C-184.11797689 152.39227761 -183.68068959 150.51720107 -183.25 148.640625 C-181.19688066 140.36191796 -178.3301261 132.32667191 -175.5625 124.265625 C-174.9025 124.265625 -174.2425 124.265625 -173.5625 124.265625 C-173.4078125 123.23115234 -173.4078125 123.23115234 -173.25 122.17578125 C-172.43952284 118.74506829 -171.09247307 115.87708357 -169.5625 112.703125 C-167.10115454 107.64507642 -167.10115454 107.64507642 -165.5625 102.265625 C-164.9025 102.265625 -164.2425 102.265625 -163.5625 102.265625 C-163.5625 101.605625 -163.5625 100.945625 -163.5625 100.265625 C-162.9025 100.265625 -162.2425 100.265625 -161.5625 100.265625 C-161.5625 98.945625 -161.5625 97.625625 -161.5625 96.265625 C-160.9025 96.265625 -160.2425 96.265625 -159.5625 96.265625 C-159.5625 94.945625 -159.5625 93.625625 -159.5625 92.265625 C-158.9025 92.265625 -158.2425 92.265625 -157.5625 92.265625 C-157.5625 91.605625 -157.5625 90.945625 -157.5625 90.265625 C-156.9025 90.265625 -156.2425 90.265625 -155.5625 90.265625 C-155.5625 88.945625 -155.5625 87.625625 -155.5625 86.265625 C-154.9025 86.265625 -154.2425 86.265625 -153.5625 86.265625 C-153.5625 85.605625 -153.5625 84.945625 -153.5625 84.265625 C-152.9025 84.265625 -152.2425 84.265625 -151.5625 84.265625 C-151.5625 83.605625 -151.5625 82.945625 -151.5625 82.265625 C-150.9025 82.265625 -150.2425 82.265625 -149.5625 82.265625 C-149.5625 80.945625 -149.5625 79.625625 -149.5625 78.265625 C-148.9025 78.265625 -148.2425 78.265625 -147.5625 78.265625 C-147.5625 77.605625 -147.5625 76.945625 -147.5625 76.265625 C-146.9025 76.265625 -146.2425 76.265625 -145.5625 76.265625 C-145.5625 75.605625 -145.5625 74.945625 -145.5625 74.265625 C-144.9025 74.265625 -144.2425 74.265625 -143.5625 74.265625 C-143.5625 73.605625 -143.5625 72.945625 -143.5625 72.265625 C-142.9025 72.265625 -142.2425 72.265625 -141.5625 72.265625 C-141.5625 70.945625 -141.5625 69.625625 -141.5625 68.265625 C-140.9025 68.265625 -140.2425 68.265625 -139.5625 68.265625 C-139.5625 67.605625 -139.5625 66.945625 -139.5625 66.265625 C-138.9025 66.265625 -138.2425 66.265625 -137.5625 66.265625 C-137.5625 65.605625 -137.5625 64.945625 -137.5625 64.265625 C-136.9025 64.265625 -136.2425 64.265625 -135.5625 64.265625 C-135.5625 63.605625 -135.5625 62.945625 -135.5625 62.265625 C-134.9025 62.265625 -134.2425 62.265625 -133.5625 62.265625 C-133.5625 61.605625 -133.5625 60.945625 -133.5625 60.265625 C-132.9025 60.265625 -132.2425 60.265625 -131.5625 60.265625 C-131.5625 59.605625 -131.5625 58.945625 -131.5625 58.265625 C-130.9025 58.265625 -130.2425 58.265625 -129.5625 58.265625 C-129.5625 57.605625 -129.5625 56.945625 -129.5625 56.265625 C-128.9025 56.265625 -128.2425 56.265625 -127.5625 56.265625 C-127.5625 55.605625 -127.5625 54.945625 -127.5625 54.265625 C-126.9025 54.265625 -126.2425 54.265625 -125.5625 54.265625 C-125.5625 53.605625 -125.5625 52.945625 -125.5625 52.265625 C-124.9025 52.265625 -124.2425 52.265625 -123.5625 52.265625 C-123.5625 51.605625 -123.5625 50.945625 -123.5625 50.265625 C-122.9025 50.265625 -122.2425 50.265625 -121.5625 50.265625 C-121.5625 49.605625 -121.5625 48.945625 -121.5625 48.265625 C-120.9025 48.265625 -120.2425 48.265625 -119.5625 48.265625 C-119.5625 47.605625 -119.5625 46.945625 -119.5625 46.265625 C-118.2425 46.265625 -116.9225 46.265625 -115.5625 46.265625 C-115.5625 45.605625 -115.5625 44.945625 -115.5625 44.265625 C-114.9025 44.265625 -114.2425 44.265625 -113.5625 44.265625 C-113.5625 43.605625 -113.5625 42.945625 -113.5625 42.265625 C-112.9025 42.265625 -112.2425 42.265625 -111.5625 42.265625 C-111.5625 41.605625 -111.5625 40.945625 -111.5625 40.265625 C-110.9025 40.265625 -110.2425 40.265625 -109.5625 40.265625 C-109.5625 39.605625 -109.5625 38.945625 -109.5625 38.265625 C-108.2425 38.265625 -106.9225 38.265625 -105.5625 38.265625 C-105.5625 37.605625 -105.5625 36.945625 -105.5625 36.265625 C-104.9025 36.265625 -104.2425 36.265625 -103.5625 36.265625 C-103.5625 35.605625 -103.5625 34.945625 -103.5625 34.265625 C-102.2425 34.265625 -100.9225 34.265625 -99.5625 34.265625 C-99.5625 33.605625 -99.5625 32.945625 -99.5625 32.265625 C-98.9025 32.265625 -98.2425 32.265625 -97.5625 32.265625 C-97.5625 31.605625 -97.5625 30.945625 -97.5625 30.265625 C-96.2425 30.265625 -94.9225 30.265625 -93.5625 30.265625 C-93.5625 29.605625 -93.5625 28.945625 -93.5625 28.265625 C-92.9025 28.265625 -92.2425 28.265625 -91.5625 28.265625 C-91.5625 27.605625 -91.5625 26.945625 -91.5625 26.265625 C-90.2425 26.265625 -88.9225 26.265625 -87.5625 26.265625 C-87.5625 25.605625 -87.5625 24.945625 -87.5625 24.265625 C-86.2425 24.265625 -84.9225 24.265625 -83.5625 24.265625 C-83.5625 23.605625 -83.5625 22.945625 -83.5625 22.265625 C-82.2425 22.265625 -80.9225 22.265625 -79.5625 22.265625 C-79.5625 21.605625 -79.5625 20.945625 -79.5625 20.265625 C-78.2425 20.265625 -76.9225 20.265625 -75.5625 20.265625 C-75.5625 19.605625 -75.5625 18.945625 -75.5625 18.265625 C-74.2425 18.265625 -72.9225 18.265625 -71.5625 18.265625 C-71.5625 17.605625 -71.5625 16.945625 -71.5625 16.265625 C-40.2487584 4.23500493 -40.2487584 4.23500493 -27.5625 2.265625 C-26.05296753 2.01743011 -26.05296753 2.01743011 -24.51293945 1.76422119 C-16.28631716 0.48444234 -8.31829598 -0.02922016 0 0 Z " fill="#F80202" transform="translate(235.5625,51.734375)"/>
<path d="M0 0 C5.5269512 4.50144268 8.93936595 9.60966516 12 16 C12.598125 17.175625 13.19625 18.35125 13.8125 19.5625 C16.94564243 28.56578285 15.94931093 39.93377486 12.2578125 48.54296875 C5.28571505 62.16237651 -3.6359386 68.21197953 -18 73 C-31.70451201 74.04386925 -41.64507074 72.32551089 -52.875 63.8125 C-61.45232254 56.34751035 -66.25021852 46.95138629 -67.31640625 35.64453125 C-67.74133761 23.0747875 -64.04631846 13.60314178 -56 4 C-40.61567669 -12.09342038 -17.85799129 -13.17646927 0 0 Z " fill="#F7F7F7" transform="translate(276,219)"/>
<path d="M0 0 C7.25587401 4.38375721 11.27162602 8.65059827 14 16.8125 C15.48014963 25.96368595 12.78023885 32.60242403 7.8125 40.125 C2.49649487 45.20473823 -2.73233448 47.03712903 -10.0625 47.25 C-17.36638363 46.95339559 -22.40287043 45.57767741 -27.8125 40.5625 C-34.08985593 33.62587838 -34.61940417 27.63916632 -34.41015625 18.4140625 C-33.55212326 10.87971568 -29.40128978 6.71472111 -23.74609375 2.0390625 C-17.173343 -2.57803758 -7.48851805 -2.96175096 0 0 Z " fill="#FCFCFC" transform="translate(260,228.1875)"/>
<path d="M0 0 C6.22042375 4.89077927 9.32142584 11.12443377 11.7890625 18.52734375 C12.7019664 27.38700129 11.26538255 35.36126813 6.24609375 42.8203125 C0.78757126 49.47796122 -6.65558232 54.80604919 -15.33984375 55.93359375 C-25.46184404 56.20996236 -32.92562842 54.16372958 -40.62890625 47.40625 C-48.09724117 39.55701639 -49.79632209 32.6638333 -49.76733398 21.96142578 C-49.45151888 13.93673122 -46.82317529 8.07414245 -41.0546875 2.41015625 C-28.8446506 -7.66730572 -13.43921566 -8.95156237 0 0 Z M-39.984375 10.78125 C-44.45121459 17.14009489 -43.82629695 24.04835963 -43.2109375 31.52734375 C-41.557472 38.2667854 -36.73259353 42.61887742 -31.2109375 46.52734375 C-25.06256082 49.74126792 -16.98400172 49.66349054 -10.421875 47.6875 C-3.17662922 44.43698943 0.7283346 39.74246901 4.1640625 32.71484375 C5.75388333 24.60675752 5.44734779 18.04923343 1.34375 10.7578125 C-2.52170648 5.21214504 -6.68893584 2.29884968 -13.2109375 0.52734375 C-25.42795402 -0.81907918 -32.25188977 1.42883071 -39.984375 10.78125 Z " fill="#0C0C0C" transform="translate(269.2109375,226.47265625)"/>
<path d="M0 0 C0.33 0 0.66 0 1 0 C1 2.31 1 4.62 1 7 C50.83 7 100.66 7 152 7 C151.67 7.66 151.34 8.32 151 9 C100.84 9 50.68 9 -1 9 C-1 1 -1 1 0 0 Z " fill="#5B0E0F" transform="translate(47,229)"/>
<path d="M0 0 C0.66 0 1.32 0 2 0 C2 2.64 2 5.28 2 8 C2.66 8 3.32 8 4 8 C4 10.31 4 12.62 4 15 C-1.61 15 -7.22 15 -13 15 C-12.67 14.01 -12.34 13.02 -12 12 C-12 12.66 -12 13.32 -12 14 C-7.38 14 -2.76 14 2 14 C2 13.34 2 12.68 2 12 C0.68 12 -0.64 12 -2 12 C-2.66 12 -3.32 12 -4 12 C-4 8.7 -4 5.4 -4 2 C-2.68 2 -1.36 2 0 2 C0 1.34 0 0.68 0 0 Z " fill="#D2090B" transform="translate(314,222)"/>
<path d="M0 0 C1.32 0 2.64 0 4 0 C3.34 1.98 2.68 3.96 2 6 C2.66 6 3.32 6 4 6 C4 6.66 4 7.32 4 8 C2.68 8 1.36 8 0 8 C0 9.32 0 10.64 0 12 C-0.66 12 -1.32 12 -2 12 C-2 11.34 -2 10.68 -2 10 C-2.66 10 -3.32 10 -4 10 C-4 11.32 -4 12.64 -4 14 C-5.32 14 -6.64 14 -8 14 C-8 12.68 -8 11.36 -8 10 C-7.34 10 -6.68 10 -6 10 C-6 9.34 -6 8.68 -6 8 C-5.34 8 -4.68 8 -4 8 C-4 7.34 -4 6.68 -4 6 C-3.34 6 -2.68 6 -2 6 C-2 5.34 -2 4.68 -2 4 C-1.34 4 -0.68 4 0 4 C0 2.68 0 1.36 0 0 Z " fill="#E90504" transform="translate(94,120)"/>
<path d="M0 0 C1.98 0 3.96 0 6 0 C6 0.66 6 1.32 6 2 C7.32 2 8.64 2 10 2 C9.34 4.64 8.68 7.28 8 10 C7.34 10 6.68 10 6 10 C6 9.34 6 8.68 6 8 C5.34 8 4.68 8 4 8 C4 7.34 4 6.68 4 6 C3.34 6 2.68 6 2 6 C2 5.34 2 4.68 2 4 C0.68 4 -0.64 4 -2 4 C-2 3.34 -2 2.68 -2 2 C-1.34 2 -0.68 2 0 2 C0 1.34 0 0.68 0 0 Z " fill="#E20507" transform="translate(278,202)"/>
<path d="M0 0 C0.66 0 1.32 0 2 0 C2 1.32 2 2.64 2 4 C1.34 4 0.68 4 0 4 C0 5.32 0 6.64 0 8 C-0.66 8 -1.32 8 -2 8 C-2.33 9.98 -2.66 11.96 -3 14 C-3.12375 13.360625 -3.2475 12.72125 -3.375 12.0625 C-3.58125 11.381875 -3.7875 10.70125 -4 10 C-4.66 9.67 -5.32 9.34 -6 9 C-6 8.01 -6 7.02 -6 6 C-5.34 6 -4.68 6 -4 6 C-4 5.34 -4 4.68 -4 4 C-4.99 3.67 -5.98 3.34 -7 3 C-3.535 2.505 -3.535 2.505 0 2 C0 1.34 0 0.68 0 0 Z " fill="#C30B0A" transform="translate(320,168)"/>
<path d="M0 0 C1.32 0 2.64 0 4 0 C4 0.66 4 1.32 4 2 C5.32 2 6.64 2 8 2 C8 2.66 8 3.32 8 4 C9.32 4 10.64 4 12 4 C14.10865385 7.47307692 14.10865385 7.47307692 13.55859375 10.140625 C13.28208984 11.06101562 13.28208984 11.06101562 13 12 C10.83035229 10.19096681 8.66421535 8.37801121 6.5 6.5625 C5.87996094 6.04623047 5.25992188 5.52996094 4.62109375 4.99804688 C3.06197284 3.68735732 1.52871719 2.34602708 0 1 C0 0.67 0 0.34 0 0 Z " fill="#F3E3E4" transform="translate(112,396)"/>
<path d="M0 0 C0.16677223 8.04212755 -0.3533402 15.98603754 -1 24 C-1.33 24 -1.66 24 -2 24 C-2 17.4 -2 10.8 -2 4 C-4.64 4 -7.28 4 -10 4 C-7.25346796 1.25346796 -3.91404908 0 0 0 Z " fill="#B31012" transform="translate(342,180)"/>
<path d="M0 0 C5.34844008 0.53484401 9.35796103 2.46690767 14 5 C11.33788628 6.37579827 8.93703384 7.37063561 6 8 C6 7.34 6 6.68 6 6 C5.34 6 4.68 6 4 6 C3.67 5.01 3.34 4.02 3 3 C2.01 3.33 1.02 3.66 0 4 C0 2.68 0 1.36 0 0 Z " fill="#CC0709" transform="translate(332,68)"/>
<path d="M0 0 C0.33 0 0.66 0 1 0 C1 1.98 1 3.96 1 6 C3.97 6.495 3.97 6.495 7 7 C7 7.33 7 7.66 7 8 C5.02 8 3.04 8 1 8 C1 8.66 1 9.32 1 10 C-0.98 10.66 -2.96 11.32 -5 12 C-5 10.68 -5 9.36 -5 8 C-4.34 8 -3.68 8 -3 8 C-3 6.68 -3 5.36 -3 4 C-2.34 4 -1.68 4 -1 4 C-0.67 2.68 -0.34 1.36 0 0 Z " fill="#2B0807" transform="translate(317,180)"/>
<path d="M0 0 C0 0.66 0 1.32 0 2 C-0.66 2 -1.32 2 -2 2 C-2 2.66 -2 3.32 -2 4 C-2.66 4 -3.32 4 -4 4 C-4 4.66 -4 5.32 -4 6 C-4.66 6 -5.32 6 -6 6 C-6 6.66 -6 7.32 -6 8 C-6.66 8 -7.32 8 -8 8 C-8 9.32 -8 10.64 -8 12 C-8.66 12 -9.32 12 -10 12 C-10 10.02 -10 8.04 -10 6 C-9.34 6 -8.68 6 -8 6 C-8 4.68 -8 3.36 -8 2 C-5.09399739 0.74335022 -3.20395416 0 0 0 Z " fill="#0E0304" transform="translate(102,112)"/>
<path d="M0 0 C4.66666667 4 9.33333333 8 14 12 C13.01 12.495 13.01 12.495 12 13 C12 13.66 12 14.32 12 15 C11.34 15 10.68 15 10 15 C10 13.68 10 12.36 10 11 C9.34 11 8.68 11 8 11 C8 10.34 8 9.68 8 9 C7.34 9 6.68 9 6 9 C6 8.34 6 7.68 6 7 C5.34 7 4.68 7 4 7 C4 6.34 4 5.68 4 5 C3.34 5 2.68 5 2 5 C2 4.34 2 3.68 2 3 C1.34 3 0.68 3 0 3 C0 2.01 0 1.02 0 0 Z " fill="#360D0F" transform="translate(104,389)"/>
<path d="M0 0 C1.98 0 3.96 0 6 0 C6 0.66 6 1.32 6 2 C5.34 2 4.68 2 4 2 C4 2.66 4 3.32 4 4 C0.38026598 5.31626692 -2.09567131 6 -6 6 C-6 5.34 -6 4.68 -6 4 C-4.68 4 -3.36 4 -2 4 C-2 3.34 -2 2.68 -2 2 C-1.34 2 -0.68 2 0 2 C0 1.34 0 0.68 0 0 Z " fill="#E10606" transform="translate(138,82)"/>
<path d="M0 0 C4.62 0 9.24 0 14 0 C9.98012591 2.00993705 7.16212692 2.55305762 2.75 3.125 C0.85507812 3.37636719 0.85507812 3.37636719 -1.078125 3.6328125 C-2.52445312 3.81457031 -2.52445312 3.81457031 -4 4 C-4 3.34 -4 2.68 -4 2 C-2.68 2 -1.36 2 0 2 C0 1.34 0 0.68 0 0 Z " fill="#EED0D0" transform="translate(282,444)"/>
<path d="M0 0 C1.32 0 2.64 0 4 0 C4.98120464 3.05263664 4.98120464 4.94736336 4 8 C3.34 8 2.68 8 2 8 C2 7.34 2 6.68 2 6 C1.34 6 0.68 6 0 6 C0 4.02 0 2.04 0 0 Z " fill="#250907" transform="translate(266,138)"/>
<path d="M0 0 C1.32 0 2.64 0 4 0 C4 0.66 4 1.32 4 2 C3.34 2 2.68 2 2 2 C2 2.66 2 3.32 2 4 C3.65 4 5.3 4 7 4 C7 4.66 7 5.32 7 6 C5.53984709 5.71758359 4.08190207 5.42373386 2.625 5.125 C1.81289062 4.96257812 1.00078125 4.80015625 0.1640625 4.6328125 C-2 4 -2 4 -4 2 C-2.68 2 -1.36 2 0 2 C0 1.34 0 0.68 0 0 Z " fill="#F4E5E4" transform="translate(188,436)"/>
<path d="M0 0 C1.98 0 3.96 0 6 0 C6 0.66 6 1.32 6 2 C5.34 2 4.68 2 4 2 C3.67 3.98 3.34 5.96 3 8 C2.87625 7.360625 2.7525 6.72125 2.625 6.0625 C2.315625 5.0415625 2.315625 5.0415625 2 4 C1.34 3.67 0.68 3.34 0 3 C0 2.01 0 1.02 0 0 Z " fill="#D7070B" transform="translate(314,174)"/>
<path d="M0 0 C-0.804375 0.45375 -1.60875 0.9075 -2.4375 1.375 C-5.08856572 2.74725665 -5.08856572 2.74725665 -6 5 C-6.66 5 -7.32 5 -8 5 C-8 4.34 -8 3.68 -8 3 C-9.32 2.67 -10.64 2.34 -12 2 C-10.75579353 1.4654744 -9.50429064 0.94791389 -8.25 0.4375 C-7.55390625 0.14746094 -6.8578125 -0.14257812 -6.140625 -0.44140625 C-3.69987216 -1.07831803 -2.3596345 -0.80248831 0 0 Z " fill="#C90909" transform="translate(202,57)"/>
<path d="M0 0 C1.65 0 3.3 0 5 0 C5.33 1.98 5.66 3.96 6 6 C5.01 6.495 5.01 6.495 4 7 C0 2.25 0 2.25 0 0 Z " fill="#F6ECEA" transform="translate(90,372)"/>
<path d="M0 0 C0.33 0.66 0.66 1.32 1 2 C1.66 2 2.32 2 3 2 C3 2.66 3 3.32 3 4 C2.34 4 1.68 4 1 4 C1 5.32 1 6.64 1 8 C-0.32 8 -1.64 8 -3 8 C-1.125 2.25 -1.125 2.25 0 0 Z " fill="#DE0909" transform="translate(65,166)"/>
<path d="M0 0 C2.875 -0.125 2.875 -0.125 6 0 C6.66 0.66 7.32 1.32 8 2 C7.34 2.66 6.68 3.32 6 4 C4.68 4 3.36 4 2 4 C2 3.34 2 2.68 2 2 C1.34 2 0.68 2 0 2 C0 1.34 0 0.68 0 0 Z " fill="#C7090A" transform="translate(288,54)"/>
<path d="M0 0 C1.32 0 2.64 0 4 0 C4 0.66 4 1.32 4 2 C5.32 2.66 6.64 3.32 8 4 C5.36 4 2.72 4 0 4 C0 2.68 0 1.36 0 0 Z " fill="#D40907" transform="translate(276,152)"/>
<path d="M0 0 C0.66 0 1.32 0 2 0 C2 0.66 2 1.32 2 2 C2.66 2 3.32 2 4 2 C4.33 3.32 4.66 4.64 5 6 C-0.75 4.25 -0.75 4.25 -3 2 C-2.01 2 -1.02 2 0 2 C0 1.34 0 0.68 0 0 Z " fill="#F2DCDC" transform="translate(158,424)"/>
<path d="M0 0 C3.0625 0.1875 3.0625 0.1875 5.0625 2.1875 C2.4225 2.8475 -0.2175 3.5075 -2.9375 4.1875 C-3.2675 3.1975 -3.5975 2.2075 -3.9375 1.1875 C-2.9375 0.1875 -2.9375 0.1875 0 0 Z " fill="#DF0506" transform="translate(340.9375,71.8125)"/>
<path d="M0 0 C2.64 0 5.28 0 8 0 C7.67 1.32 7.34 2.64 7 4 C4.08482708 2.92598892 2.22189824 2.22189824 0 0 Z " fill="#F4E1DD" transform="translate(148,422)"/>
<path d="M0 0 C1.32 0 2.64 0 4 0 C4 1.32 4 2.64 4 4 C3.34 4 2.68 4 2 4 C2 4.66 2 5.32 2 6 C1.34 6 0.68 6 0 6 C0 4.02 0 2.04 0 0 Z " fill="#D90408" transform="translate(334,210)"/>
<path d="M0 0 C3.61855575 0.62388892 4.1709277 1.1709277 7 4 C4.03 3.67 1.06 3.34 -2 3 C-1.34 2.01 -0.68 1.02 0 0 Z " fill="#EDD3D7" transform="translate(205,442)"/>
<path d="M0 0 C2.64 0 5.28 0 8 0 C5.37801226 2.15377564 3.35595828 3.40072174 0 4 C0 2.68 0 1.36 0 0 Z " fill="#F2D9DB" transform="translate(324,432)"/>
<path d="M0 0 C-2.38573379 1.89213369 -4.07175348 3.02391783 -7 4 C-7.66 3.01 -8.32 2.02 -9 1 C-6.04335481 -0.4783226 -3.25770263 -0.06032783 0 0 Z " fill="#FAE7EA" transform="translate(340,428)"/>
<path d="M0 0 C1.32 0.33 2.64 0.66 4 1 C4 1.66 4 2.32 4 3 C5.32 3 6.64 3 8 3 C7.67 4.32 7.34 5.64 7 7 C5.83040013 6.02433888 4.66438823 5.044375 3.5 4.0625 C2.8503125 3.51722656 2.200625 2.97195313 1.53125 2.41015625 C1.0259375 1.94480469 0.520625 1.47945313 0 1 C0 0.67 0 0.34 0 0 Z " fill="#F1D0CE" transform="translate(118,401)"/>
<path d="M0 0 C-0.66 1.98 -1.32 3.96 -2 6 C-3.32 4.68 -4.64 3.36 -6 2 C-3 0 -3 0 0 0 Z " fill="#FBE7E9" transform="translate(114,390)"/>
<path d="M0 0 C1.65 0 3.3 0 5 0 C5.33 1.98 5.66 3.96 6 6 C3.97945196 4.35830472 1.97956942 2.69088222 0 1 C0 0.67 0 0.34 0 0 Z " fill="#FAE9E8" transform="translate(96,380)"/>
</svg>
